PathFileType	4	(X/Y/Z)	Patient4_TMGait_0pt7_01_left_11.trc.trc
DataRate	CameraRate	NumFrames	NumMarkers	Units	OrigDataRate	OrigDataStartFrame	OrigNumFrames
88.050314465409	88.050314465409	4	33	mm	88.050314465409	53	       141
Frame#	Time	Sacral			L.Shoulder			Chest			R.Shoulder			Neck			R.ASIS			L.ASIS			R.Thigh.Superior			R.Thigh.Lateral			R.Thigh.Inferior			R.Patella			L.Thigh.Superior			L.Thigh.Lateral			L.Thigh.Inferior			L.Patella			L.Shank.Superior			L.Shank.Lateral			L.Shank.Inferior			R.Shank.Superior			R.Shank.Lateral			R.Shank.Inferior			R.Heel			R.Midfoot.Superior			R.Midfoot.Lateral			R.Toe			L.Heel			L.Midfoot.Lateral			L.Midfoot.Superior			L.Toe			L.Elbow			L.Wrist			R.Elbow			R.Wrist			
		X1	Y1	Z1	X2	Y2	Z2	X3	Y3	Z3	X4	Y4	Z4	X5	Y5	Z5	X6	Y6	Z6	X7	Y7	Z7	X8	Y8	Z8	X9	Y9	Z9	X10	Y10	Z10	X11	Y11	Z11	X12	Y12	Z12	X13	Y13	Z13	X14	Y14	Z14	X15	Y15	Z15	X16	Y16	Z16	X17	Y17	Z17	X18	Y18	Z18	X19	Y19	Z19	X20	Y20	Z20	X21	Y21	Z21	X22	Y22	Z22	X23	Y23	Z23	X24	Y24	Z24	X25	Y25	Z25	X26	Y26	Z26	X27	Y27	Z27	X28	Y28	Z28	X29	Y29	Z29	X30	Y30	Z30	X31	Y31	Z31	X32	Y32	Z32	X33	Y33	Z33	

53	13.240571428571	798.786669963459	1002.829434871820	432.369267484074	991.155856504117	1422.952730072590	244.073738660942	1089.265846408062	1356.696935217190	410.374790426502	1004.419948118651	1443.430210748389	578.415393223773	997.336000369148	1491.127697016536	396.552925133951	1024.709870003432	941.569257330502	553.230128445515	1018.781050602442	967.989022601708	279.564276330296	1121.430093901283	788.647274445864	528.023650221861	1092.183516934791	664.255326132092	601.971756710786	1190.545606217672	636.225758556804	527.660473447415	1219.671870011864	522.386960636765	550.196372450546	1067.017882270634	755.523509432412	308.335594163693	978.771293547148	641.475688033678	243.317984006478	1056.594337506961	562.142048346955	310.785888159433	1053.953343433414	494.509965153979	320.746870021015	1032.966975600960	422.259960424896	310.335404761038	950.235698624217	302.830090079791	260.246858382485	1006.239202967913	196.474573369820	335.159300446913	1144.887595339175	443.242874442234	550.748895942468	1019.343074847766	400.698748498262	598.976473419333	1011.659966784660	291.853549484864	549.081122424466	817.445979834099	235.328700972270	500.777461589927	976.627745435008	165.966574168422	559.542222964179	864.757298659360	173.910964522498	580.653666039131	1028.893263103319	49.097706855857	593.465775931739	884.849711371560	37.594121807595	381.083092142442	956.464121532908	34.337329846715	297.811848789534	1037.244667668806	98.794635750778	321.741229055281	1166.491902530690	52.189076975932	290.555381024098	1000.431477863959	1072.531972161957	125.443625902591	1138.692250657029	851.257337005648	144.252287154348	910.736058852306	1116.775701071022	706.121884140790	1103.063204582949	950.387997720218	662.184692729105	
54	13.251928571429	797.356550738401	1003.341886817858	430.799148550702	992.211940442737	1423.385852765613	243.559337809184	1088.988274094603	1356.558630067015	410.387860681288	1003.490990977663	1443.531132514049	577.951824760339	997.709363435175	1491.383944892019	396.026864734577	1022.866963051781	942.509939943876	552.952913738739	1018.046886483502	968.293625237240	279.076540947207	1121.476633361330	792.709561397271	526.747690498928	1095.275828049721	667.999973748478	601.239080304948	1193.477630498128	641.489173695183	526.336095094866	1225.337193095712	528.876012419527	549.311989614259	1063.893410763370	754.753401575687	308.419843082116	974.334971013956	641.591472279624	242.850508384935	1050.580881086916	561.353421424729	310.764011564956	1047.100534330542	493.978369842466	320.808196148072	1026.066473330865	421.989838520533	310.247333871323	943.085228087558	302.809325745571	260.054891985801	998.550964664009	196.344961466819	335.188158663474	1153.615118340100	447.313715406911	550.631600195200	1030.466316421232	399.375882800942	599.879267408416	1027.192349185191	290.137170976351	550.361675020247	835.122504663648	224.518260439346	503.847877393045	998.107942768417	163.184964979811	561.755325871432	885.967983321530	165.559121573867	583.415519284616	1056.096765951554	48.914123503956	595.184847004487	876.787455418686	37.544598500415	381.085532954411	948.428049479819	34.319622259401	297.823713704695	1029.217759281366	98.706405451534	321.819585955862	1158.470521423557	52.137409843433	290.623819299674	1008.693057236753	1074.499977521155	122.743124086283	1158.934682192047	861.314947380353	144.116286951168	904.667955093703	1117.550119464090	704.459009224825	1082.803688189478	932.616676000602	669.710884143401	
55	13.263285714286	796.079163859052	1003.822225993068	429.338261251421	993.441067978867	1423.801998953860	243.135161780999	1088.831784721421	1356.364620213191	410.485778663370	1002.677825541537	1443.559847067193	577.565453432149	998.159480998560	1491.586224982188	395.579528576137	1021.088952787556	943.332442625556	552.767598798536	1017.427190128676	968.506238433708	278.656459631495	1121.226419636740	796.285757913192	525.640369193204	1097.649936987271	671.274138719891	600.588314334845	1195.617835763630	646.013767283241	525.171657320989	1229.908836746129	534.857104139295	548.580597109585	1060.696249539931	753.913949420105	308.566182047677	969.861817779818	641.668368395315	242.422386943467	1044.520680759939	560.543681123904	310.747810014436	1040.234525441862	493.440838937528	320.820853092824	1019.117713753646	421.719477286408	310.149446285368	935.875198276497	302.787077664318	259.861160515887	990.827735022398	196.210443995441	335.204477347018	1161.617235205817	450.934049384008	550.706691203142	1041.387885870469	397.234274978490	601.057670543793	1043.055517056410	287.753810583906	551.990260944047	853.943441902300	212.341150875991	507.299103489242	1020.515377594693	159.856646286993	564.426235928668	908.385509220553	156.332747959794	586.629702234959	1084.480760588682	48.689559581107	597.574706343433	868.732606844043	37.498468048642	381.085420586273	940.382966603257	34.294478840628	297.838496741197	1021.192365497829	98.613562901000	321.890049167039	1150.446414154112	52.063089503374	290.691658461830	1016.475294410818	1076.610492037205	120.236701794090	1178.384621900351	872.386735597502	144.412885951637	899.669091452193	1118.146730586358	703.317650371298	1061.716290757288	916.473887018598	677.313494280620	
56	13.274642857143	794.963585977760	1004.260622604230	427.996723087775	994.814895677838	1424.186023244822	242.814677183260	1088.801636920156	1356.103542205681	410.666054211922	1002.008527299228	1443.492464292815	577.272954917349	998.683846708388	1491.719144204483	395.226171576760	1019.409144429306	944.001082121513	552.646997645725	1016.924379678419	968.623633558084	278.289122979605	1120.696143038046	799.270130354666	524.715113446434	1099.238519025639	673.960938921816	600.033266582147	1196.925642409297	649.664522082575	524.203012114587	1233.314287796039	540.189103589546	548.004646582063	1057.457753353747	753.006490818888	308.738913030259	965.371040284633	641.703615341495	242.024675344984	1038.455360773312	559.713865220955	310.709476469166	1033.398489430019	492.893305509151	320.766731061999	1012.156012432243	421.445340589081	310.031527384046	928.634295029712	302.761444929962	259.658841390186	983.092872147885	196.065607161409	335.204229117133	1168.810928806573	454.046040688696	550.963441218709	1052.098021130680	394.324814995905	602.529219017519	1059.184542931098	284.832865121006	553.945961458804	873.968331777654	199.069321561337	511.146673208382	1043.752039993541	156.182216289926	567.460581367545	932.013300949420	146.501129540872	590.267875394432	1113.864818895948	48.697206209038	600.479946073646	860.690955563171	37.460897708252	381.078626251016	932.333582959076	34.263402299806	297.855103686794	1013.178346011053	98.512935071583	321.951432271853	1142.424284879003	51.958167654057	290.755491164923	1023.769315709277	1078.797772793249	117.946158641304	1196.928764669232	884.393389725928	145.119680837534	895.558413464663	1118.580255119698	702.652971037033	1040.014772278546	902.182939678344	684.899078501198	
